<svg width="32" height="32" viewBox="0 0 32 32" fill="none" xmlns="http://www.w3.org/2000/svg">
<g id="BowlFood" clip-path="url(#clip0_25_388)">
<path id="Vector" d="M6 14C6 11.3478 7.05357 8.8043 8.92893 6.92893C10.8043 5.05357 13.3478 4 16 4C18.6522 4 21.1957 5.05357 23.0711 6.92893C24.9464 8.8043 26 11.3478 26 14" stroke="black" stroke-width="2" stroke-linecap="round" stroke-linejoin="round"/>
<path id="Vector_2" d="M11.2 14C11.661 11.7413 12.8883 9.71121 14.6741 8.25339C16.46 6.79557 18.6946 5.99953 21 6C21.3595 6.00019 21.7187 6.01938 22.0762 6.0575" stroke="black" stroke-width="2" stroke-linecap="round" stroke-linejoin="round"/>
<path id="Vector_3" d="M16.8325 14C17.4839 12.5101 18.4883 11.2011 19.7588 10.1862C21.0294 9.17135 22.5279 8.48108 24.125 8.17505" stroke="black" stroke-width="2" stroke-linecap="round" stroke-linejoin="round"/>
<path id="Vector_4" d="M11 24.9125C8.91072 23.9549 7.14038 22.4174 5.89947 20.4829C4.65856 18.5484 3.99928 16.2983 4 14H28C28.0007 16.2983 27.3414 18.5484 26.1005 20.4829C24.8596 22.4174 23.0893 23.9549 21 24.9125V26C21 26.2652 20.8946 26.5196 20.7071 26.7071C20.5196 26.8946 20.2652 27 20 27H12C11.7348 27 11.4804 26.8946 11.2929 26.7071C11.1054 26.5196 11 26.2652 11 26V24.9125Z" stroke="black" stroke-width="2" stroke-linecap="round" stroke-linejoin="round"/>
</g>
<defs>
<clipPath id="clip0_25_388">
<rect width="32" height="32" fill="white"/>
</clipPath>
</defs>
</svg>
