<svg width="32" height="32" viewBox="0 0 32 32" fill="none" xmlns="http://www.w3.org/2000/svg">
<g id="HandCoins" clip-path="url(#clip0_25_359)">
<path id="Vector" d="M25.5 14C27.433 14 29 12.433 29 10.5C29 8.567 27.433 7 25.5 7C23.567 7 22 8.567 22 10.5C22 12.433 23.567 14 25.5 14Z" stroke="black" stroke-width="2" stroke-linecap="round" stroke-linejoin="round"/>
<path id="Vector_2" d="M6 26H2C1.73478 26 1.48043 25.8946 1.29289 25.7071C1.10536 25.5196 1 25.2652 1 25V20C1 19.7348 1.10536 19.4804 1.29289 19.2929C1.48043 19.1054 1.73478 19 2 19H6" stroke="black" stroke-width="2" stroke-linecap="round" stroke-linejoin="round"/>
<path id="Vector_3" d="M14 20H18L26.375 18.0738C26.6829 17.9894 27.0061 17.9771 27.3195 18.038C27.6329 18.0989 27.9281 18.2312 28.182 18.4247C28.436 18.6181 28.6419 18.8676 28.7838 19.1536C28.9256 19.4396 28.9996 19.7545 29 20.0738C29.0002 20.4592 28.8929 20.8371 28.6902 21.165C28.4875 21.4929 28.1974 21.7578 27.8525 21.93L23 24L15 26H6V19L9.125 15.875C9.40432 15.5967 9.73577 15.3761 10.1004 15.226C10.465 15.0758 10.8557 14.999 11.25 15H17.5C18.163 15 18.7989 15.2634 19.2678 15.7322C19.7366 16.2011 20 16.837 20 17.5C20 18.1631 19.7366 18.7989 19.2678 19.2678C18.7989 19.7366 18.163 20 17.5 20H14Z" stroke="black" stroke-width="2" stroke-linecap="round" stroke-linejoin="round"/>
<path id="Vector_4" d="M22 10.6613C21.3207 10.9826 20.556 11.0767 19.8191 10.9297C19.0821 10.7828 18.4121 10.4026 17.908 9.8453C17.4039 9.28804 17.0925 8.58334 17.0199 7.83541C16.9473 7.08749 17.1174 6.33606 17.5049 5.69227C17.8924 5.04847 18.4769 4.5465 19.1718 4.26058C19.8667 3.97466 20.6352 3.91998 21.3636 4.10463C22.092 4.28929 22.7416 4.70346 23.2164 5.2859C23.6912 5.86835 23.9659 6.58813 24 7.33879" stroke="black" stroke-width="2" stroke-linecap="round" stroke-linejoin="round"/>
</g>
<defs>
<clipPath id="clip0_25_359">
<rect width="32" height="32" fill="white"/>
</clipPath>
</defs>
</svg>
