<svg width="32" height="32" viewBox="0 0 32 32" fill="none" xmlns="http://www.w3.org/2000/svg">
<g id="PawPrint" clip-path="url(#clip0_25_386)">
<path id="Vector" d="M26.5 16C27.8807 16 29 14.8807 29 13.5C29 12.1193 27.8807 11 26.5 11C25.1193 11 24 12.1193 24 13.5C24 14.8807 25.1193 16 26.5 16Z" stroke="black" stroke-width="2" stroke-linecap="round" stroke-linejoin="round"/>
<path id="Vector_2" d="M5.5 16C6.88071 16 8 14.8807 8 13.5C8 12.1193 6.88071 11 5.5 11C4.11929 11 3 12.1193 3 13.5C3 14.8807 4.11929 16 5.5 16Z" stroke="black" stroke-width="2" stroke-linecap="round" stroke-linejoin="round"/>
<path id="Vector_3" d="M11.5 10C12.8807 10 14 8.88071 14 7.5C14 6.11929 12.8807 5 11.5 5C10.1193 5 9 6.11929 9 7.5C9 8.88071 10.1193 10 11.5 10Z" stroke="black" stroke-width="2" stroke-linecap="round" stroke-linejoin="round"/>
<path id="Vector_4" d="M20.5 10C21.8807 10 23 8.88071 23 7.5C23 6.11929 21.8807 5 20.5 5C19.1193 5 18 6.11929 18 7.5C18 8.88071 19.1193 10 20.5 10Z" stroke="black" stroke-width="2" stroke-linecap="round" stroke-linejoin="round"/>
<path id="Vector_5" d="M16 13C15.0248 13.0004 14.0762 13.3175 13.2968 13.9036C12.5175 14.4898 11.9496 15.3132 11.6787 16.25C11.2785 17.6278 10.3497 18.7916 9.09499 19.4875C8.1841 19.9732 7.49624 20.7922 7.17524 21.7733C6.85425 22.7544 6.92496 23.8216 7.37261 24.7517C7.82025 25.6819 8.61017 26.403 9.57717 26.7642C10.5442 27.1255 11.6134 27.0989 12.5612 26.69C14.7639 25.7869 17.2336 25.7869 19.4362 26.69C20.3841 27.0989 21.4533 27.1255 22.4203 26.7642C23.3873 26.403 24.1772 25.6819 24.6249 24.7517C25.0725 23.8216 25.1432 22.7544 24.8222 21.7733C24.5012 20.7922 23.8134 19.9732 22.9025 19.4875C21.6484 18.7914 20.7205 17.6276 20.3212 16.25C20.0504 15.3132 19.4825 14.4898 18.7032 13.9036C17.9238 13.3175 16.9752 13.0004 16 13Z" stroke="black" stroke-width="2" stroke-linecap="round" stroke-linejoin="round"/>
</g>
<defs>
<clipPath id="clip0_25_386">
<rect width="32" height="32" fill="white"/>
</clipPath>
</defs>
</svg>
