<svg width="32" height="32" viewBox="0 0 32 32" fill="none" xmlns="http://www.w3.org/2000/svg">
<g id="Phone" clip-path="url(#clip0_25_478)">
<path id="Vector" d="M20.5488 18.1675C20.6872 18.0753 20.8465 18.0192 21.0122 18.0041C21.1779 17.989 21.3447 18.0156 21.4975 18.0812L27.3925 20.7225C27.5912 20.8074 27.757 20.9543 27.8651 21.1414C27.9733 21.3284 28.018 21.5454 27.9925 21.76C27.7983 23.2113 27.0836 24.5427 25.9813 25.5065C24.8791 26.4704 23.4642 27.0011 22 27C17.4913 27 13.1673 25.2089 9.97919 22.0208C6.79107 18.8327 5 14.5087 5 9.99997C4.99888 8.53573 5.5296 7.12091 6.49345 6.01864C7.45731 4.91637 8.78869 4.20167 10.24 4.00747C10.4545 3.98199 10.6716 4.02666 10.8586 4.13482C11.0456 4.24299 11.1926 4.40881 11.2775 4.60747L13.9188 10.5075C13.9836 10.659 14.0101 10.8242 13.9957 10.9885C13.9813 11.1527 13.9265 11.3108 13.8363 11.4487L11.165 14.625C11.0702 14.768 11.0142 14.9331 11.0024 15.1042C10.9906 15.2753 11.0233 15.4466 11.0975 15.6012C12.1313 17.7175 14.3188 19.8787 16.4413 20.9025C16.5967 20.9763 16.7688 21.0084 16.9404 20.9954C17.112 20.9825 17.2773 20.925 17.42 20.8287L20.5488 18.1675Z" stroke="black" stroke-width="2" stroke-linecap="round" stroke-linejoin="round"/>
</g>
<defs>
<clipPath id="clip0_25_478">
<rect width="32" height="32" fill="white"/>
</clipPath>
</defs>
</svg>
