<svg width="32" height="32" viewBox="0 0 32 32" fill="none" xmlns="http://www.w3.org/2000/svg">
<g id="ShootingStar" clip-path="url(#clip0_25_476)">
<path id="Vector" d="M21.0999 3.39252L22.9999 7.82127C23.0469 7.92956 23.1224 8.02306 23.2184 8.09175C23.3144 8.16045 23.4272 8.20176 23.5449 8.21127L28.4037 8.62502C28.5307 8.63318 28.6524 8.67906 28.7533 8.75678C28.8541 8.8345 28.9295 8.94053 28.9698 9.06131C29.01 9.1821 29.0133 9.31215 28.9793 9.43483C28.9453 9.55751 28.8754 9.66725 28.7787 9.75002L25.0874 12.8963C24.9991 12.9716 24.9331 13.0697 24.8965 13.1798C24.8599 13.29 24.8542 13.4081 24.8799 13.5213L25.9849 18.2038C26.0123 18.328 26.0027 18.4576 25.9572 18.5764C25.9117 18.6952 25.8323 18.7981 25.7289 18.8722C25.6255 18.9463 25.5026 18.9885 25.3754 18.9934C25.2483 18.9984 25.1225 18.9659 25.0136 18.9L20.8362 16.4163C20.7343 16.3561 20.6182 16.3244 20.4999 16.3244C20.3816 16.3244 20.2655 16.3561 20.1636 16.4163L15.9862 18.9C15.8773 18.9659 15.7515 18.9984 15.6244 18.9934C15.4972 18.9885 15.3743 18.9463 15.2709 18.8722C15.1675 18.7981 15.0881 18.6952 15.0426 18.5764C14.9971 18.4576 14.9875 18.328 15.0149 18.2038L16.1249 13.5275C16.1506 13.4143 16.1449 13.2963 16.1083 13.1861C16.0717 13.0759 16.0057 12.9779 15.9174 12.9025L12.2261 9.75002C12.1294 9.66725 12.0595 9.55751 12.0255 9.43483C11.9915 9.31215 11.9948 9.1821 12.035 9.06131C12.0753 8.94053 12.1507 8.8345 12.2515 8.75678C12.3524 8.67906 12.4741 8.63318 12.6011 8.62502L17.4612 8.21377C17.578 8.20294 17.6897 8.16076 17.7845 8.09167C17.8794 8.02258 17.9538 7.92916 17.9999 7.82127L19.8999 3.39252C19.951 3.2759 20.0349 3.17668 20.1415 3.10701C20.248 3.03735 20.3726 3.00024 20.4999 3.00024C20.6272 3.00024 20.7518 3.03735 20.8583 3.10701C20.9649 3.17668 21.0488 3.2759 21.0999 3.39252Z" stroke="black" stroke-width="2" stroke-linecap="round" stroke-linejoin="round"/>
<path id="Vector_2" d="M10 15L3 22" stroke="black" stroke-width="2" stroke-linecap="round" stroke-linejoin="round"/>
<path id="Vector_3" d="M12 22L5 29" stroke="black" stroke-width="2" stroke-linecap="round" stroke-linejoin="round"/>
<path id="Vector_4" d="M21 22L14 29" stroke="black" stroke-width="2" stroke-linecap="round" stroke-linejoin="round"/>
</g>
<defs>
<clipPath id="clip0_25_476">
<rect width="32" height="32" fill="white"/>
</clipPath>
</defs>
</svg>
